<svg width="33" height="33" viewBox="0 0 33 33" fill="none" xmlns="http://www.w3.org/2000/svg">
<path d="M20.625 27.5C20.625 27.1353 20.4801 26.7856 20.2223 26.5277C19.9644 26.2699 19.6147 26.125 19.25 26.125H17.875V23.375H23.375C24.1043 23.375 24.8038 23.0853 25.3195 22.5695C25.8353 22.0538 26.125 21.3543 26.125 20.625V6.875C26.125 6.14565 25.8353 5.44618 25.3195 4.93046C24.8038 4.41473 24.1043 4.125 23.375 4.125H9.625C8.89565 4.125 8.19618 4.41473 7.68046 4.93046C7.16473 5.44618 6.875 6.14565 6.875 6.875V20.625C6.875 21.3543 7.16473 22.0538 7.68046 22.5695C8.19618 23.0853 8.89565 23.375 9.625 23.375H15.125V26.125H13.75C13.3853 26.125 13.0356 26.2699 12.7777 26.5277C12.5199 26.7856 12.375 27.1353 12.375 27.5H2.75V30.25H12.375C12.375 30.6147 12.5199 30.9644 12.7777 31.2223C13.0356 31.4801 13.3853 31.625 13.75 31.625H19.25C19.6147 31.625 19.9644 31.4801 20.2223 31.2223C20.4801 30.9644 20.625 30.6147 20.625 30.25H30.25V27.5H20.625ZM9.625 20.625V6.875H23.375V20.625H9.625ZM13.75 19.25V8.25L20.625 13.75L13.75 19.25Z" fill="url(#paint0_linear_951_914)"/>
<defs>
<linearGradient id="paint0_linear_951_914" x1="16.5" y1="4.125" x2="16.5" y2="31.625" gradientUnits="userSpaceOnUse">
<stop stop-color="#110555"/>
<stop offset="1" stop-color="#3A26AE"/>
</linearGradient>
</defs>
</svg>
