<svg width="33" height="33" viewBox="0 0 33 33" fill="none" xmlns="http://www.w3.org/2000/svg">
<g clip-path="url(#clip0_1002_2866)">
<path d="M20.625 26.125H2.75V1.375H24.75V6.875M24.75 6.875C26.5734 6.875 28.322 7.59933 29.6114 8.88864C30.9007 10.178 31.625 11.9266 31.625 13.75C31.625 15.5734 30.9007 17.322 29.6114 18.6114C28.322 19.9007 26.5734 20.625 24.75 20.625C22.9266 20.625 21.178 19.9007 19.8886 18.6114C18.5993 17.322 17.875 15.5734 17.875 13.75C17.875 11.9266 18.5993 10.178 19.8886 8.88864C21.178 7.59933 22.9266 6.875 24.75 6.875ZM20.625 19.25V30.25L24.75 27.5L28.875 30.25V19.25M6.875 11H15.125M6.875 15.125H13.75M6.875 19.25H9.625M6.875 6.875H9.625" stroke="url(#paint0_linear_1002_2866)" stroke-width="2.75"/>
</g>
<defs>
<linearGradient id="paint0_linear_1002_2866" x1="17.1875" y1="1.375" x2="17.1875" y2="30.25" gradientUnits="userSpaceOnUse">
<stop stop-color="#110555"/>
<stop offset="1" stop-color="#3A26AE"/>
</linearGradient>
<clipPath id="clip0_1002_2866">
<rect width="33" height="33" fill="white"/>
</clipPath>
</defs>
</svg>
