<svg width="28" height="28" viewBox="0 0 33 33" fill="none" xmlns="http://www.w3.org/2000/svg">
<g clip-path="url(#clip0_1002_2691)">
<path d="M21.6675 5.15625C18.5008 5.15625 15.6537 3.09375 11.2317 3.09375C9.21422 3.09375 7.47386 3.51154 6.02895 4.07138C6.17223 3.64155 6.21936 3.1855 6.167 2.73546C5.99846 1.26167 4.78029 0.102742 3.30006 0.00670652C1.49802 -0.110211 0 1.31685 0 3.09375C0 4.2387 0.622424 5.23759 1.54688 5.77255V31.9688C1.54688 32.5383 2.00855 33 2.57812 33H3.60938C4.17895 33 4.64062 32.5383 4.64062 31.9688V26.5906C7.0814 25.477 9.23349 24.75 12.8794 24.75C16.0461 24.75 18.8932 26.8125 23.3152 26.8125C27.0844 26.8125 29.8876 25.3548 31.6005 24.2356C32.4744 23.6647 33 22.6908 33 21.6469V6.18344C33 3.96245 30.7271 2.46011 28.6878 3.33996C26.3738 4.33828 23.9534 5.15625 21.6675 5.15625ZM29.9062 21.6563C28.5023 22.6496 25.986 23.7188 23.3152 23.7188C19.4516 23.7188 16.7409 21.6563 12.8794 21.6563C10.0847 21.6563 6.66748 22.2623 4.64062 23.2031V8.25C6.04467 7.25665 8.56092 6.1875 11.2317 6.1875C15.0953 6.1875 17.806 8.25 21.6675 8.25C24.4564 8.25 27.8756 7.13071 29.9062 6.1875V21.6563Z" fill="url(#paint0_linear_1002_2691)"/>
</g>
<defs>
<linearGradient id="paint0_linear_1002_2691" x1="16.5" y1="0" x2="16.5" y2="33" gradientUnits="userSpaceOnUse">
<stop stop-color="#110555"/>
<stop offset="1" stop-color="#3A26AE"/>
</linearGradient>
<clipPath id="clip0_1002_2691">
<rect width="33" height="33" fill="white"/>
</clipPath>
</defs>
</svg>
