<svg width="1440" height="1051" viewBox="0 0 1440 1051" fill="none" xmlns="http://www.w3.org/2000/svg">
<path opacity="0.2" d="M52.5455 0H0V52.55M52.5455 0V52.55M52.5455 0H105.091M52.5455 52.55H0M52.5455 52.55V105.1M52.5455 52.55H105.091M0 52.55V105.1M52.5455 105.1H0M52.5455 105.1V157.65M52.5455 105.1H105.091M0 105.1V157.65M52.5455 157.65H0M52.5455 157.65V210.2M52.5455 157.65H105.091M0 157.65V210.2M52.5455 210.2H0M52.5455 210.2V262.75M52.5455 210.2H105.091M0 210.2V262.75M52.5455 262.75H0M52.5455 262.75V315.3M52.5455 262.75H105.091M0 262.75V315.3M52.5455 315.3H0M52.5455 315.3V367.85M52.5455 315.3H105.091M0 315.3V367.85M52.5455 367.85H0M52.5455 367.85V420.4M52.5455 367.85H105.091M0 367.85V420.4M52.5455 420.4H0M52.5455 420.4V472.95M52.5455 420.4H105.091M0 420.4V472.95M52.5455 472.95H0M52.5455 472.95V525.5M52.5455 472.95H105.091M0 472.95V525.5M52.5455 525.5H0M52.5455 525.5V578.05M52.5455 525.5H105.091M0 525.5V578.05M52.5455 578.05H0M52.5455 578.05V630.6M52.5455 578.05H105.091M0 578.05V630.6M52.5455 630.6H0M52.5455 630.6V683.15M52.5455 630.6H105.091M0 630.6V683.15M52.5455 683.15H0M52.5455 683.15V735.7M52.5455 683.15H105.091M0 683.15V735.7M52.5455 735.7H0M52.5455 735.7V788.25M52.5455 735.7H105.091M0 735.7V788.25M52.5455 788.25H0M52.5455 788.25V840.8M52.5455 788.25H105.091M0 788.25V840.8M52.5455 840.8H0M52.5455 840.8V893.35M52.5455 840.8H105.091M0 840.8V893.35M52.5455 893.35H0M52.5455 893.35V945.9M52.5455 893.35H105.091M0 893.35V945.9M52.5455 945.9H0M52.5455 945.9V998.45M52.5455 945.9H105.091M0 945.9V998.45M52.5455 998.45H0M52.5455 998.45V1051M52.5455 998.45H105.091M0 998.45V1051H52.5455M52.5455 1051H105.091M105.091 0V52.55M105.091 0H157.636M105.091 52.55V105.1M105.091 52.55H157.636M105.091 105.1V157.65M105.091 105.1H157.636M105.091 157.65V210.2M105.091 157.65H157.636M105.091 210.2V262.75M105.091 210.2H157.636M105.091 262.75V315.3M105.091 262.75H157.636M105.091 315.3V367.85M105.091 315.3H157.636M105.091 367.85V420.4M105.091 367.85H157.636M105.091 420.4V472.95M105.091 420.4H157.636M105.091 472.95V525.5M105.091 472.95H157.636M105.091 525.5V578.05M105.091 525.5H157.636M105.091 578.05V630.6M105.091 578.05H157.636M105.091 630.6V683.15M105.091 630.6H157.636M105.091 683.15V735.7M105.091 683.15H157.636M105.091 735.7V788.25M105.091 735.7H157.636M105.091 788.25V840.8M105.091 788.25H157.636M105.091 840.8V893.35M105.091 840.8H157.636M105.091 893.35V945.9M105.091 893.35H157.636M105.091 945.9V998.45M105.091 945.9H157.636M105.091 998.45V1051M105.091 998.45H157.636M105.091 1051H157.636M157.636 0V52.55M157.636 0H210.182M157.636 52.55V105.1M157.636 52.55H210.182M157.636 105.1V157.65M157.636 105.1H210.182M157.636 157.65V210.2M157.636 157.65H210.182M157.636 210.2V262.75M157.636 210.2H210.182M157.636 262.75V315.3M157.636 262.75H210.182M157.636 315.3V367.85M157.636 315.3H210.182M157.636 367.85V420.4M157.636 367.85H210.182M157.636 420.4V472.95M157.636 420.4H210.182M157.636 472.95V525.5M157.636 472.95H210.182M157.636 525.5V578.05M157.636 525.5H210.182M157.636 578.05V630.6M157.636 578.05H210.182M157.636 630.6V683.15M157.636 630.6H210.182M157.636 683.15V735.7M157.636 683.15H210.182M157.636 735.7V788.25M157.636 735.7H210.182M157.636 788.25V840.8M157.636 788.25H210.182M157.636 840.8V893.35M157.636 840.8H210.182M157.636 893.35V945.9M157.636 893.35H210.182M157.636 945.9V998.45M157.636 945.9H210.182M157.636 998.45V1051M157.636 998.45H210.182M157.636 1051H210.182M210.182 0V52.55M210.182 0H262.727M210.182 52.55V105.1M210.182 52.55H262.727M210.182 105.1V157.65M210.182 105.1H262.727M210.182 157.65V210.2M210.182 157.65H262.727M210.182 210.2V262.75M210.182 210.2H262.727M210.182 262.75V315.3M210.182 262.75H262.727M210.182 315.3V367.85M210.182 315.3H262.727M210.182 367.85V420.4M210.182 367.85H262.727M210.182 420.4V472.95M210.182 420.4H262.727M210.182 472.95V525.5M210.182 472.95H262.727M210.182 525.5V578.05M210.182 525.5H262.727M210.182 578.05V630.6M210.182 578.05H262.727M210.182 630.6V683.15M210.182 630.6H262.727M210.182 683.15V735.7M210.182 683.15H262.727M210.182 735.7V788.25M210.182 735.7H262.727M210.182 788.25V840.8M210.182 788.25H262.727M210.182 840.8V893.35M210.182 840.8H262.727M210.182 893.35V945.9M210.182 893.35H262.727M210.182 945.9V998.45M210.182 945.9H262.727M210.182 998.45V1051M210.182 998.45H262.727M210.182 1051H262.727M262.727 0V52.55M262.727 0H315.273M262.727 52.55V105.1M262.727 52.55H315.273M262.727 105.1V157.65M262.727 105.1H315.273M262.727 157.65V210.2M262.727 157.65H315.273M262.727 210.2V262.75M262.727 210.2H315.273M262.727 262.75V315.3M262.727 262.75H315.273M262.727 315.3V367.85M262.727 315.3H315.273M262.727 367.85V420.4M262.727 367.85H315.273M262.727 420.4V472.95M262.727 420.4H315.273M262.727 472.95V525.5M262.727 472.95H315.273M262.727 525.5V578.05M262.727 525.5H315.273M262.727 578.05V630.6M262.727 578.05H315.273M262.727 630.6V683.15M262.727 630.6H315.273M262.727 683.15V735.7M262.727 683.15H315.273M262.727 735.7V788.25M262.727 735.7H315.273M262.727 788.25V840.8M262.727 788.25H315.273M262.727 840.8V893.35M262.727 840.8H315.273M262.727 893.35V945.9M262.727 893.35H315.273M262.727 945.9V998.45M262.727 945.9H315.273M262.727 998.45V1051M262.727 998.45H315.273M262.727 1051H315.273M315.273 0V52.55M315.273 0H367.818M315.273 52.55V105.1M315.273 52.55H367.818M315.273 105.1V157.65M315.273 105.1H367.818M315.273 157.65V210.2M315.273 157.65H367.818M315.273 210.2V262.75M315.273 210.2H367.818M315.273 262.75V315.3M315.273 262.75H367.818M315.273 315.3V367.85M315.273 315.3H367.818M315.273 367.85V420.4M315.273 367.85H367.818M315.273 420.4V472.95M315.273 420.4H367.818M315.273 472.95V525.5M315.273 472.95H367.818M315.273 525.5V578.05M315.273 525.5H367.818M315.273 578.05V630.6M315.273 578.05H367.818M315.273 630.6V683.15M315.273 630.6H367.818M315.273 683.15V735.7M315.273 683.15H367.818M315.273 735.7V788.25M315.273 735.7H367.818M315.273 788.25V840.8M315.273 788.25H367.818M315.273 840.8V893.35M315.273 840.8H367.818M315.273 893.35V945.9M315.273 893.35H367.818M315.273 945.9V998.45M315.273 945.9H367.818M315.273 998.45V1051M315.273 998.45H367.818M315.273 1051H367.818M367.818 0V52.55M367.818 0H420.364M367.818 52.55V105.1M367.818 52.55H420.364M367.818 105.1V157.65M367.818 105.1H420.364M367.818 157.65V210.2M367.818 157.65H420.364M367.818 210.2V262.75M367.818 210.2H420.364M367.818 262.75V315.3M367.818 262.75H420.364M367.818 315.3V367.85M367.818 315.3H420.364M367.818 367.85V420.4M367.818 367.85H420.364M367.818 420.4V472.95M367.818 420.4H420.364M367.818 472.95V525.5M367.818 472.95H420.364M367.818 525.5V578.05M367.818 525.5H420.364M367.818 578.05V630.6M367.818 578.05H420.364M367.818 630.6V683.15M367.818 630.6H420.364M367.818 683.15V735.7M367.818 683.15H420.364M367.818 735.7V788.25M367.818 735.7H420.364M367.818 788.25V840.8M367.818 788.25H420.364M367.818 840.8V893.35M367.818 840.8H420.364M367.818 893.35V945.9M367.818 893.35H420.364M367.818 945.9V998.45M367.818 945.9H420.364M367.818 998.45V1051M367.818 998.45H420.364M367.818 1051H420.364M420.364 0V52.55M420.364 0H472.909M420.364 52.55V105.1M420.364 52.55H472.909M420.364 105.1V157.65M420.364 105.1H472.909M420.364 157.65V210.2M420.364 157.65H472.909M420.364 210.2V262.75M420.364 210.2H472.909M420.364 262.75V315.3M420.364 262.75H472.909M420.364 315.3V367.85M420.364 315.3H472.909M420.364 367.85V420.4M420.364 367.85H472.909M420.364 420.4V472.95M420.364 420.4H472.909M420.364 472.95V525.5M420.364 472.95H472.909M420.364 525.5V578.05M420.364 525.5H472.909M420.364 578.05V630.6M420.364 578.05H472.909M420.364 630.6V683.15M420.364 630.6H472.909M420.364 683.15V735.7M420.364 683.15H472.909M420.364 735.7V788.25M420.364 735.7H472.909M420.364 788.25V840.8M420.364 788.25H472.909M420.364 840.8V893.35M420.364 840.8H472.909M420.364 893.35V945.9M420.364 893.35H472.909M420.364 945.9V998.45M420.364 945.9H472.909M420.364 998.45V1051M420.364 998.45H472.909M420.364 1051H472.909M472.909 0V52.55M472.909 0H525.455M472.909 52.55V105.1M472.909 52.55H525.455M472.909 105.1V157.65M472.909 105.1H525.455M472.909 157.65V210.2M472.909 157.65H525.455M472.909 210.2V262.75M472.909 210.2H525.455M472.909 262.75V315.3M472.909 262.75H525.455M472.909 315.3V367.85M472.909 315.3H525.455M472.909 367.85V420.4M472.909 367.85H525.455M472.909 420.4V472.95M472.909 420.4H525.455M472.909 472.95V525.5M472.909 472.95H525.455M472.909 525.5V578.05M472.909 525.5H525.455M472.909 578.05V630.6M472.909 578.05H525.455M472.909 630.6V683.15M472.909 630.6H525.455M472.909 683.15V735.7M472.909 683.15H525.455M472.909 735.7V788.25M472.909 735.7H525.455M472.909 788.25V840.8M472.909 788.25H525.455M472.909 840.8V893.35M472.909 840.8H525.455M472.909 893.35V945.9M472.909 893.35H525.455M472.909 945.9V998.45M472.909 945.9H525.455M472.909 998.45V1051M472.909 998.45H525.455M472.909 1051H525.455M525.455 0V52.55M525.455 0H578M525.455 52.55V105.1M525.455 52.55H578M525.455 105.1V157.65M525.455 105.1H578M525.455 157.65V210.2M525.455 157.65H578M525.455 210.2V262.75M525.455 210.2H578M525.455 262.75V315.3M525.455 262.75H578M525.455 315.3V367.85M525.455 315.3H578M525.455 367.85V420.4M525.455 367.85H578M525.455 420.4V472.95M525.455 420.4H578M525.455 472.95V525.5M525.455 472.95H578M525.455 525.5V578.05M525.455 525.5H578M525.455 578.05V630.6M525.455 578.05H578M525.455 630.6V683.15M525.455 630.6H578M525.455 683.15V735.7M525.455 683.15H578M525.455 735.7V788.25M525.455 735.7H578M525.455 788.25V840.8M525.455 788.25H578M525.455 840.8V893.35M525.455 840.8H578M525.455 893.35V945.9M525.455 893.35H578M525.455 945.9V998.45M525.455 945.9H578M525.455 998.45V1051M525.455 998.45H578M525.455 1051H578M578 0V52.55M578 0H630.545M578 52.55V105.1M578 52.55H630.545M578 105.1V157.65M578 105.1H630.545M578 157.65V210.2M578 157.65H630.545M578 210.2V262.75M578 210.2H630.545M578 262.75V315.3M578 262.75H630.545M578 315.3V367.85M578 315.3H630.545M578 367.85V420.4M578 367.85H630.545M578 420.4V472.95M578 420.4H630.545M578 472.95V525.5M578 472.95H630.545M578 525.5V578.05M578 525.5H630.545M578 578.05V630.6M578 578.05H630.545M578 630.6V683.15M578 630.6H630.545M578 683.15V735.7M578 683.15H630.545M578 735.7V788.25M578 735.7H630.545M578 788.25V840.8M578 788.25H630.545M578 840.8V893.35M578 840.8H630.545M578 893.35V945.9M578 893.35H630.545M578 945.9V998.45M578 945.9H630.545M578 998.45V1051M578 998.45H630.545M578 1051H630.545M630.545 0V52.55M630.545 0H683.091M630.545 52.55V105.1M630.545 52.55H683.091M630.545 105.1V157.65M630.545 105.1H683.091M630.545 157.65V210.2M630.545 157.65H683.091M630.545 210.2V262.75M630.545 210.2H683.091M630.545 262.75V315.3M630.545 262.75H683.091M630.545 315.3V367.85M630.545 315.3H683.091M630.545 367.85V420.4M630.545 367.85H683.091M630.545 420.4V472.95M630.545 420.4H683.091M630.545 472.95V525.5M630.545 472.95H683.091M630.545 525.5V578.05M630.545 525.5H683.091M630.545 578.05V630.6M630.545 578.05H683.091M630.545 630.6V683.15M630.545 630.6H683.091M630.545 683.15V735.7M630.545 683.15H683.091M630.545 735.7V788.25M630.545 735.7H683.091M630.545 788.25V840.8M630.545 788.25H683.091M630.545 840.8V893.35M630.545 840.8H683.091M630.545 893.35V945.9M630.545 893.35H683.091M630.545 945.9V998.45M630.545 945.9H683.091M630.545 998.45V1051M630.545 998.45H683.091M630.545 1051H683.091M683.091 0V52.55M683.091 0H735.636M683.091 52.55V105.1M683.091 52.55H735.636M683.091 105.1V157.65M683.091 105.1H735.636M683.091 157.65V210.2M683.091 157.65H735.636M683.091 210.2V262.75M683.091 210.2H735.636M683.091 262.75V315.3M683.091 262.75H735.636M683.091 315.3V367.85M683.091 315.3H735.636M683.091 367.85V420.4M683.091 367.85H735.636M683.091 420.4V472.95M683.091 420.4H735.636M683.091 472.95V525.5M683.091 472.95H735.636M683.091 525.5V578.05M683.091 525.5H735.636M683.091 578.05V630.6M683.091 578.05H735.636M683.091 630.6V683.15M683.091 630.6H735.636M683.091 683.15V735.7M683.091 683.15H735.636M683.091 735.7V788.25M683.091 735.7H735.636M683.091 788.25V840.8M683.091 788.25H735.636M683.091 840.8V893.35M683.091 840.8H735.636M683.091 893.35V945.9M683.091 893.35H735.636M683.091 945.9V998.45M683.091 945.9H735.636M683.091 998.45V1051M683.091 998.45H735.636M683.091 1051H735.636M735.636 0V52.55M735.636 0H788.182M735.636 52.55V105.1M735.636 52.55H788.182M735.636 105.1V157.65M735.636 105.1H788.182M735.636 157.65V210.2M735.636 157.65H788.182M735.636 210.2V262.75M735.636 210.2H788.182M735.636 262.75V315.3M735.636 262.75H788.182M735.636 315.3V367.85M735.636 315.3H788.182M735.636 367.85V420.4M735.636 367.85H788.182M735.636 420.4V472.95M735.636 420.4H788.182M735.636 472.95V525.5M735.636 472.95H788.182M735.636 525.5V578.05M735.636 525.5H788.182M735.636 578.05V630.6M735.636 578.05H788.182M735.636 630.6V683.15M735.636 630.6H788.182M735.636 683.15V735.7M735.636 683.15H788.182M735.636 735.7V788.25M735.636 735.7H788.182M735.636 788.25V840.8M735.636 788.25H788.182M735.636 840.8V893.35M735.636 840.8H788.182M735.636 893.35V945.9M735.636 893.35H788.182M735.636 945.9V998.45M735.636 945.9H788.182M735.636 998.45V1051M735.636 998.45H788.182M735.636 1051H788.182M788.182 0V52.55M788.182 0H840.727M788.182 52.55V105.1M788.182 52.55H840.727M788.182 105.1V157.65M788.182 105.1H840.727M788.182 157.65V210.2M788.182 157.65H840.727M788.182 210.2V262.75M788.182 210.2H840.727M788.182 262.75V315.3M788.182 262.75H840.727M788.182 315.3V367.85M788.182 315.3H840.727M788.182 367.85V420.4M788.182 367.85H840.727M788.182 420.4V472.95M788.182 420.4H840.727M788.182 472.95V525.5M788.182 472.95H840.727M788.182 525.5V578.05M788.182 525.5H840.727M788.182 578.05V630.6M788.182 578.05H840.727M788.182 630.6V683.15M788.182 630.6H840.727M788.182 683.15V735.7M788.182 683.15H840.727M788.182 735.7V788.25M788.182 735.7H840.727M788.182 788.25V840.8M788.182 788.25H840.727M788.182 840.8V893.35M788.182 840.8H840.727M788.182 893.35V945.9M788.182 893.35H840.727M788.182 945.9V998.45M788.182 945.9H840.727M788.182 998.45V1051M788.182 998.45H840.727M788.182 1051H840.727M840.727 0V52.55M840.727 0H893.273M840.727 52.55V105.1M840.727 52.55H893.273M840.727 105.1V157.65M840.727 105.1H893.273M840.727 157.65V210.2M840.727 157.65H893.273M840.727 210.2V262.75M840.727 210.2H893.273M840.727 262.75V315.3M840.727 262.75H893.273M840.727 315.3V367.85M840.727 315.3H893.273M840.727 367.85V420.4M840.727 367.85H893.273M840.727 420.4V472.95M840.727 420.4H893.273M840.727 472.95V525.5M840.727 472.95H893.273M840.727 525.5V578.05M840.727 525.5H893.273M840.727 578.05V630.6M840.727 578.05H893.273M840.727 630.6V683.15M840.727 630.6H893.273M840.727 683.15V735.7M840.727 683.15H893.273M840.727 735.7V788.25M840.727 735.7H893.273M840.727 788.25V840.8M840.727 788.25H893.273M840.727 840.8V893.35M840.727 840.8H893.273M840.727 893.35V945.9M840.727 893.35H893.273M840.727 945.9V998.45M840.727 945.9H893.273M840.727 998.45V1051M840.727 998.45H893.273M840.727 1051H893.273M893.273 0V52.55M893.273 0H945.818M893.273 52.55V105.1M893.273 52.55H945.818M893.273 105.1V157.65M893.273 105.1H945.818M893.273 157.65V210.2M893.273 157.65H945.818M893.273 210.2V262.75M893.273 210.2H945.818M893.273 262.75V315.3M893.273 262.75H945.818M893.273 315.3V367.85M893.273 315.3H945.818M893.273 367.85V420.4M893.273 367.85H945.818M893.273 420.4V472.95M893.273 420.4H945.818M893.273 472.95V525.5M893.273 472.95H945.818M893.273 525.5V578.05M893.273 525.5H945.818M893.273 578.05V630.6M893.273 578.05H945.818M893.273 630.6V683.15M893.273 630.6H945.818M893.273 683.15V735.7M893.273 683.15H945.818M893.273 735.7V788.25M893.273 735.7H945.818M893.273 788.25V840.8M893.273 788.25H945.818M893.273 840.8V893.35M893.273 840.8H945.818M893.273 893.35V945.9M893.273 893.35H945.818M893.273 945.9V998.45M893.273 945.9H945.818M893.273 998.45V1051M893.273 998.45H945.818M893.273 1051H945.818M945.818 0V52.55M945.818 0H998.364M945.818 52.55V105.1M945.818 52.55H998.364M945.818 105.1V157.65M945.818 105.1H998.364M945.818 157.65V210.2M945.818 157.65H998.364M945.818 210.2V262.75M945.818 210.2H998.364M945.818 262.75V315.3M945.818 262.75H998.364M945.818 315.3V367.85M945.818 315.3H998.364M945.818 367.85V420.4M945.818 367.85H998.364M945.818 420.4V472.95M945.818 420.4H998.364M945.818 472.95V525.5M945.818 472.95H998.364M945.818 525.5V578.05M945.818 525.5H998.364M945.818 578.05V630.6M945.818 578.05H998.364M945.818 630.6V683.15M945.818 630.6H998.364M945.818 683.15V735.7M945.818 683.15H998.364M945.818 735.7V788.25M945.818 735.7H998.364M945.818 788.25V840.8M945.818 788.25H998.364M945.818 840.8V893.35M945.818 840.8H998.364M945.818 893.35V945.9M945.818 893.35H998.364M945.818 945.9V998.45M945.818 945.9H998.364M945.818 998.45V1051M945.818 998.45H998.364M945.818 1051H998.364M998.364 0V52.55M998.364 0H1050.91M998.364 52.55V105.1M998.364 52.55H1050.91M998.364 105.1V157.65M998.364 105.1H1050.91M998.364 157.65V210.2M998.364 157.65H1050.91M998.364 210.2V262.75M998.364 210.2H1050.91M998.364 262.75V315.3M998.364 262.75H1050.91M998.364 315.3V367.85M998.364 315.3H1050.91M998.364 367.85V420.4M998.364 367.85H1050.91M998.364 420.4V472.95M998.364 420.4H1050.91M998.364 472.95V525.5M998.364 472.95H1050.91M998.364 525.5V578.05M998.364 525.5H1050.91M998.364 578.05V630.6M998.364 578.05H1050.91M998.364 630.6V683.15M998.364 630.6H1050.91M998.364 683.15V735.7M998.364 683.15H1050.91M998.364 735.7V788.25M998.364 735.7H1050.91M998.364 788.25V840.8M998.364 788.25H1050.91M998.364 840.8V893.35M998.364 840.8H1050.91M998.364 893.35V945.9M998.364 893.35H1050.91M998.364 945.9V998.45M998.364 945.9H1050.91M998.364 998.45V1051M998.364 998.45H1050.91M998.364 1051H1050.91M1050.91 0V52.55M1050.91 0H1103.45M1050.91 52.55V105.1M1050.91 52.55H1103.45M1050.91 105.1V157.65M1050.91 105.1H1103.45M1050.91 157.65V210.2M1050.91 157.65H1103.45M1050.91 210.2V262.75M1050.91 210.2H1103.45M1050.91 262.75V315.3M1050.91 262.75H1103.45M1050.91 315.3V367.85M1050.91 315.3H1103.45M1050.91 367.85V420.4M1050.91 367.85H1103.45M1050.91 420.4V472.95M1050.91 420.4H1103.45M1050.91 472.95V525.5M1050.91 472.95H1103.45M1050.91 525.5V578.05M1050.91 525.5H1103.45M1050.91 578.05V630.6M1050.91 578.05H1103.45M1050.91 630.6V683.15M1050.91 630.6H1103.45M1050.91 683.15V735.7M1050.91 683.15H1103.45M1050.91 735.7V788.25M1050.91 735.7H1103.45M1050.91 788.25V840.8M1050.91 788.25H1103.45M1050.91 840.8V893.35M1050.91 840.8H1103.45M1050.91 893.35V945.9M1050.91 893.35H1103.45M1050.91 945.9V998.45M1050.91 945.9H1103.45M1050.91 998.45V1051M1050.91 998.45H1103.45M1050.91 1051H1103.45M1103.45 0V52.55M1103.45 0H1156M1103.45 52.55V105.1M1103.45 52.55H1156M1103.45 105.1V157.65M1103.45 105.1H1156M1103.45 157.65V210.2M1103.45 157.65H1156M1103.45 210.2V262.75M1103.45 210.2H1156M1103.45 262.75V315.3M1103.45 262.75H1156M1103.45 315.3V367.85M1103.45 315.3H1156M1103.45 367.85V420.4M1103.45 367.85H1156M1103.45 420.4V472.95M1103.45 420.4H1156M1103.45 472.95V525.5M1103.45 472.95H1156M1103.45 525.5V578.05M1103.45 525.5H1156M1103.45 578.05V630.6M1103.45 578.05H1156M1103.45 630.6V683.15M1103.45 630.6H1156M1103.45 683.15V735.7M1103.45 683.15H1156M1103.45 735.7V788.25M1103.45 735.7H1156M1103.45 788.25V840.8M1103.45 788.25H1156M1103.45 840.8V893.35M1103.45 840.8H1156M1103.45 893.35V945.9M1103.45 893.35H1156M1103.45 945.9V998.45M1103.45 945.9H1156M1103.45 998.45V1051M1103.45 998.45H1156M1103.45 1051H1156M1156 0V52.55M1156 0H1208.55M1156 52.55V105.1M1156 52.55H1208.55M1156 105.1V157.65M1156 105.1H1208.55M1156 157.65V210.2M1156 157.65H1208.55M1156 210.2V262.75M1156 210.2H1208.55M1156 262.75V315.3M1156 262.75H1208.55M1156 315.3V367.85M1156 315.3H1208.55M1156 367.85V420.4M1156 367.85H1208.55M1156 420.4V472.95M1156 420.4H1208.55M1156 472.95V525.5M1156 472.95H1208.55M1156 525.5V578.05M1156 525.5H1208.55M1156 578.05V630.6M1156 578.05H1208.55M1156 630.6V683.15M1156 630.6H1208.55M1156 683.15V735.7M1156 683.15H1208.55M1156 735.7V788.25M1156 735.7H1208.55M1156 788.25V840.8M1156 788.25H1208.55M1156 840.8V893.35M1156 840.8H1208.55M1156 893.35V945.9M1156 893.35H1208.55M1156 945.9V998.45M1156 945.9H1208.55M1156 998.45V1051M1156 998.45H1208.55M1156 1051H1208.55M1208.55 0V52.55M1208.55 0H1261.09M1208.55 52.55V105.1M1208.55 52.55H1261.09M1208.55 105.1V157.65M1208.55 105.1H1261.09M1208.55 157.65V210.2M1208.55 157.65H1261.09M1208.55 210.2V262.75M1208.55 210.2H1261.09M1208.55 262.75V315.3M1208.55 262.75H1261.09M1208.55 315.3V367.85M1208.55 315.3H1261.09M1208.55 367.85V420.4M1208.55 367.85H1261.09M1208.55 420.4V472.95M1208.55 420.4H1261.09M1208.55 472.95V525.5M1208.55 472.95H1261.09M1208.55 525.5V578.05M1208.55 525.5H1261.09M1208.55 578.05V630.6M1208.55 578.05H1261.09M1208.55 630.6V683.15M1208.55 630.6H1261.09M1208.55 683.15V735.7M1208.55 683.15H1261.09M1208.55 735.7V788.25M1208.55 735.7H1261.09M1208.55 788.25V840.8M1208.55 788.25H1261.09M1208.55 840.8V893.35M1208.55 840.8H1261.09M1208.55 893.35V945.9M1208.55 893.35H1261.09M1208.55 945.9V998.45M1208.55 945.9H1261.09M1208.55 998.45V1051M1208.55 998.45H1261.09M1208.55 1051H1261.09M1261.09 0V52.55M1261.09 0H1313.64M1261.09 52.55V105.1M1261.09 52.55H1313.64M1261.09 105.1V157.65M1261.09 105.1H1313.64M1261.09 157.65V210.2M1261.09 157.65H1313.64M1261.09 210.2V262.75M1261.09 210.2H1313.64M1261.09 262.75V315.3M1261.09 262.75H1313.64M1261.09 315.3V367.85M1261.09 315.3H1313.64M1261.09 367.85V420.4M1261.09 367.85H1313.64M1261.09 420.4V472.95M1261.09 420.4H1313.64M1261.09 472.95V525.5M1261.09 472.95H1313.64M1261.09 525.5V578.05M1261.09 525.5H1313.64M1261.09 578.05V630.6M1261.09 578.05H1313.64M1261.09 630.6V683.15M1261.09 630.6H1313.64M1261.09 683.15V735.7M1261.09 683.15H1313.64M1261.09 735.7V788.25M1261.09 735.7H1313.64M1261.09 788.25V840.8M1261.09 788.25H1313.64M1261.09 840.8V893.35M1261.09 840.8H1313.64M1261.09 893.35V945.9M1261.09 893.35H1313.64M1261.09 945.9V998.45M1261.09 945.9H1313.64M1261.09 998.45V1051M1261.09 998.45H1313.64M1261.09 1051H1313.64M1313.64 0V52.55M1313.64 0H1366.18M1313.64 52.55V105.1M1313.64 52.55H1366.18M1313.64 105.1V157.65M1313.64 105.1H1366.18M1313.64 157.65V210.2M1313.64 157.65H1366.18M1313.64 210.2V262.75M1313.64 210.2H1366.18M1313.64 262.75V315.3M1313.64 262.75H1366.18M1313.64 315.3V367.85M1313.64 315.3H1366.18M1313.64 367.85V420.4M1313.64 367.85H1366.18M1313.64 420.4V472.95M1313.64 420.4H1366.18M1313.64 472.95V525.5M1313.64 472.95H1366.18M1313.64 525.5V578.05M1313.64 525.5H1366.18M1313.64 578.05V630.6M1313.64 578.05H1366.18M1313.64 630.6V683.15M1313.64 630.6H1366.18M1313.64 683.15V735.7M1313.64 683.15H1366.18M1313.64 735.7V788.25M1313.64 735.7H1366.18M1313.64 788.25V840.8M1313.64 788.25H1366.18M1313.64 840.8V893.35M1313.64 840.8H1366.18M1313.64 893.35V945.9M1313.64 893.35H1366.18M1313.64 945.9V998.45M1313.64 945.9H1366.18M1313.64 998.45V1051M1313.64 998.45H1366.18M1313.64 1051H1366.18M1366.18 0V52.55M1366.18 0H1418.73M1366.18 52.55V105.1M1366.18 52.55H1418.73M1366.18 105.1V157.65M1366.18 105.1H1418.73M1366.18 157.65V210.2M1366.18 157.65H1418.73M1366.18 210.2V262.75M1366.18 210.2H1418.73M1366.18 262.75V315.3M1366.18 262.75H1418.73M1366.18 315.3V367.85M1366.18 315.3H1418.73M1366.18 367.85V420.4M1366.18 367.85H1418.73M1366.18 420.4V472.95M1366.18 420.4H1418.73M1366.18 472.95V525.5M1366.18 472.95H1418.73M1366.18 525.5V578.05M1366.18 525.5H1418.73M1366.18 578.05V630.6M1366.18 578.05H1418.73M1366.18 630.6V683.15M1366.18 630.6H1418.73M1366.18 683.15V735.7M1366.18 683.15H1418.73M1366.18 735.7V788.25M1366.18 735.7H1418.73M1366.18 788.25V840.8M1366.18 788.25H1418.73M1366.18 840.8V893.35M1366.18 840.8H1418.73M1366.18 893.35V945.9M1366.18 893.35H1418.73M1366.18 945.9V998.45M1366.18 945.9H1418.73M1366.18 998.45V1051M1366.18 998.45H1418.73M1366.18 1051H1418.73M1418.73 0V52.55M1418.73 0H1471.27M1418.73 52.55V105.1M1418.73 52.55H1471.27M1418.73 105.1V157.65M1418.73 105.1H1471.27M1418.73 157.65V210.2M1418.73 157.65H1471.27M1418.73 210.2V262.75M1418.73 210.2H1471.27M1418.73 262.75V315.3M1418.73 262.75H1471.27M1418.73 315.3V367.85M1418.73 315.3H1471.27M1418.73 367.85V420.4M1418.73 367.85H1471.27M1418.73 420.4V472.95M1418.73 420.4H1471.27M1418.73 472.95V525.5M1418.73 472.95H1471.27M1418.73 525.5V578.05M1418.73 525.5H1471.27M1418.73 578.05V630.6M1418.73 578.05H1471.27M1418.73 630.6V683.15M1418.73 630.6H1471.27M1418.73 683.15V735.7M1418.73 683.15H1471.27M1418.73 735.7V788.25M1418.73 735.7H1471.27M1418.73 788.25V840.8M1418.73 788.25H1471.27M1418.73 840.8V893.35M1418.73 840.8H1471.27M1418.73 893.35V945.9M1418.73 893.35H1471.27M1418.73 945.9V998.45M1418.73 945.9H1471.27M1418.73 998.45V1051M1418.73 998.45H1471.27M1418.73 1051H1471.27M1471.27 0V52.55M1471.27 0H1523.82M1471.27 52.55V105.1M1471.27 52.55H1523.82M1471.27 105.1V157.65M1471.27 105.1H1523.82M1471.27 157.65V210.2M1471.27 157.65H1523.82M1471.27 210.2V262.75M1471.27 210.2H1523.82M1471.27 262.75V315.3M1471.27 262.75H1523.82M1471.27 315.3V367.85M1471.27 315.3H1523.82M1471.27 367.85V420.4M1471.27 367.85H1523.82M1471.27 420.4V472.95M1471.27 420.4H1523.82M1471.27 472.95V525.5M1471.27 472.95H1523.82M1471.27 525.5V578.05M1471.27 525.5H1523.82M1471.27 578.05V630.6M1471.27 578.05H1523.82M1471.27 630.6V683.15M1471.27 630.6H1523.82M1471.27 683.15V735.7M1471.27 683.15H1523.82M1471.27 735.7V788.25M1471.27 735.7H1523.82M1471.27 788.25V840.8M1471.27 788.25H1523.82M1471.27 840.8V893.35M1471.27 840.8H1523.82M1471.27 893.35V945.9M1471.27 893.35H1523.82M1471.27 945.9V998.45M1471.27 945.9H1523.82M1471.27 998.45V1051M1471.27 998.45H1523.82M1471.27 1051H1523.82M1523.82 0V52.55M1523.82 0H1576.36M1523.82 52.55V105.1M1523.82 52.55H1576.36M1523.82 105.1V157.65M1523.82 105.1H1576.36M1523.82 157.65V210.2M1523.82 157.65H1576.36M1523.82 210.2V262.75M1523.82 210.2H1576.36M1523.82 262.75V315.3M1523.82 262.75H1576.36M1523.82 315.3V367.85M1523.82 315.3H1576.36M1523.82 367.85V420.4M1523.82 367.85H1576.36M1523.82 420.4V472.95M1523.82 420.4H1576.36M1523.82 472.95V525.5M1523.82 472.95H1576.36M1523.82 525.5V578.05M1523.82 525.5H1576.36M1523.82 578.05V630.6M1523.82 578.05H1576.36M1523.82 630.6V683.15M1523.82 630.6H1576.36M1523.82 683.15V735.7M1523.82 683.15H1576.36M1523.82 735.7V788.25M1523.82 735.7H1576.36M1523.82 788.25V840.8M1523.82 788.25H1576.36M1523.82 840.8V893.35M1523.82 840.8H1576.36M1523.82 893.35V945.9M1523.82 893.35H1576.36M1523.82 945.9V998.45M1523.82 945.9H1576.36M1523.82 998.45V1051M1523.82 998.45H1576.36M1523.82 1051H1576.36M1576.36 0V52.55M1576.36 0H1628.91M1576.36 52.55V105.1M1576.36 52.55H1628.91M1576.36 105.1V157.65M1576.36 105.1H1628.91M1576.36 157.65V210.2M1576.36 157.65H1628.91M1576.36 210.2V262.75M1576.36 210.2H1628.91M1576.36 262.75V315.3M1576.36 262.75H1628.91M1576.36 315.3V367.85M1576.36 315.3H1628.91M1576.36 367.85V420.4M1576.36 367.85H1628.91M1576.36 420.4V472.95M1576.36 420.4H1628.91M1576.36 472.95V525.5M1576.36 472.95H1628.91M1576.36 525.5V578.05M1576.36 525.5H1628.91M1576.36 578.05V630.6M1576.36 578.05H1628.91M1576.36 630.6V683.15M1576.36 630.6H1628.91M1576.36 683.15V735.7M1576.36 683.15H1628.91M1576.36 735.7V788.25M1576.36 735.7H1628.91M1576.36 788.25V840.8M1576.36 788.25H1628.91M1576.36 840.8V893.35M1576.36 840.8H1628.91M1576.36 893.35V945.9M1576.36 893.35H1628.91M1576.36 945.9V998.45M1576.36 945.9H1628.91M1576.36 998.45V1051M1576.36 998.45H1628.91M1576.36 1051H1628.91M1628.91 0V52.55M1628.91 0H1681.45M1628.91 52.55V105.1M1628.91 52.55H1681.45M1628.91 105.1V157.65M1628.91 105.1H1681.45M1628.91 157.65V210.2M1628.91 157.65H1681.45M1628.91 210.2V262.75M1628.91 210.2H1681.45M1628.91 262.75V315.3M1628.91 262.75H1681.45M1628.91 315.3V367.85M1628.91 315.3H1681.45M1628.91 367.85V420.4M1628.91 367.85H1681.45M1628.91 420.4V472.95M1628.91 420.4H1681.45M1628.91 472.95V525.5M1628.91 472.95H1681.45M1628.91 525.5V578.05M1628.91 525.5H1681.45M1628.91 578.05V630.6M1628.91 578.05H1681.45M1628.91 630.6V683.15M1628.91 630.6H1681.45M1628.91 683.15V735.7M1628.91 683.15H1681.45M1628.91 735.7V788.25M1628.91 735.7H1681.45M1628.91 788.25V840.8M1628.91 788.25H1681.45M1628.91 840.8V893.35M1628.91 840.8H1681.45M1628.91 893.35V945.9M1628.91 893.35H1681.45M1628.91 945.9V998.45M1628.91 945.9H1681.45M1628.91 998.45V1051M1628.91 998.45H1681.45M1628.91 1051H1681.45M1681.45 0V52.55M1681.45 0H1734M1681.45 52.55V105.1M1681.45 52.55H1734M1681.45 105.1V157.65M1681.45 105.1H1734M1681.45 157.65V210.2M1681.45 157.65H1734M1681.45 210.2V262.75M1681.45 210.2H1734M1681.45 262.75V315.3M1681.45 262.75H1734M1681.45 315.3V367.85M1681.45 315.3H1734M1681.45 367.85V420.4M1681.45 367.85H1734M1681.45 420.4V472.95M1681.45 420.4H1734M1681.45 472.95V525.5M1681.45 472.95H1734M1681.45 525.5V578.05M1681.45 525.5H1734M1681.45 578.05V630.6M1681.45 578.05H1734M1681.45 630.6V683.15M1681.45 630.6H1734M1681.45 683.15V735.7M1681.45 683.15H1734M1681.45 735.7V788.25M1681.45 735.7H1734M1681.45 788.25V840.8M1681.45 788.25H1734M1681.45 840.8V893.35M1681.45 840.8H1734M1681.45 893.35V945.9M1681.45 893.35H1734M1681.45 945.9V998.45M1681.45 945.9H1734M1681.45 998.45V1051M1681.45 998.45H1734M1681.45 1051H1734M1734 0V52.55M1734 0H1786.55M1734 52.55V105.1M1734 52.55H1786.55M1734 105.1V157.65M1734 105.1H1786.55M1734 157.65V210.2M1734 157.65H1786.55M1734 210.2V262.75M1734 210.2H1786.55M1734 262.75V315.3M1734 262.75H1786.55M1734 315.3V367.85M1734 315.3H1786.55M1734 367.85V420.4M1734 367.85H1786.55M1734 420.4V472.95M1734 420.4H1786.55M1734 472.95V525.5M1734 472.95H1786.55M1734 525.5V578.05M1734 525.5H1786.55M1734 578.05V630.6M1734 578.05H1786.55M1734 630.6V683.15M1734 630.6H1786.55M1734 683.15V735.7M1734 683.15H1786.55M1734 735.7V788.25M1734 735.7H1786.55M1734 788.25V840.8M1734 788.25H1786.55M1734 840.8V893.35M1734 840.8H1786.55M1734 893.35V945.9M1734 893.35H1786.55M1734 945.9V998.45M1734 945.9H1786.55M1734 998.45V1051M1734 998.45H1786.55M1734 1051H1786.55M1786.55 0V52.55M1786.55 0H1839.09M1786.55 52.55V105.1M1786.55 52.55H1839.09M1786.55 105.1V157.65M1786.55 105.1H1839.09M1786.55 157.65V210.2M1786.55 157.65H1839.09M1786.55 210.2V262.75M1786.55 210.2H1839.09M1786.55 262.75V315.3M1786.55 262.75H1839.09M1786.55 315.3V367.85M1786.55 315.3H1839.09M1786.55 367.85V420.4M1786.55 367.85H1839.09M1786.55 420.4V472.95M1786.55 420.4H1839.09M1786.55 472.95V525.5M1786.55 472.95H1839.09M1786.55 525.5V578.05M1786.55 525.5H1839.09M1786.55 578.05V630.6M1786.55 578.05H1839.09M1786.55 630.6V683.15M1786.55 630.6H1839.09M1786.55 683.15V735.7M1786.55 683.15H1839.09M1786.55 735.7V788.25M1786.55 735.7H1839.09M1786.55 788.25V840.8M1786.55 788.25H1839.09M1786.55 840.8V893.35M1786.55 840.8H1839.09M1786.55 893.35V945.9M1786.55 893.35H1839.09M1786.55 945.9V998.45M1786.55 945.9H1839.09M1786.55 998.45V1051M1786.55 998.45H1839.09M1786.55 1051H1839.09M1839.09 0V52.55M1839.09 0H1891.64M1839.09 52.55V105.1M1839.09 52.55H1891.64M1839.09 105.1V157.65M1839.09 105.1H1891.64M1839.09 157.65V210.2M1839.09 157.65H1891.64M1839.09 210.2V262.75M1839.09 210.2H1891.64M1839.09 262.75V315.3M1839.09 262.75H1891.64M1839.09 315.3V367.85M1839.09 315.3H1891.64M1839.09 367.85V420.4M1839.09 367.85H1891.64M1839.09 420.4V472.95M1839.09 420.4H1891.64M1839.09 472.95V525.5M1839.09 472.95H1891.64M1839.09 525.5V578.05M1839.09 525.5H1891.64M1839.09 578.05V630.6M1839.09 578.05H1891.64M1839.09 630.6V683.15M1839.09 630.6H1891.64M1839.09 683.15V735.7M1839.09 683.15H1891.64M1839.09 735.7V788.25M1839.09 735.7H1891.64M1839.09 788.25V840.8M1839.09 788.25H1891.64M1839.09 840.8V893.35M1839.09 840.8H1891.64M1839.09 893.35V945.9M1839.09 893.35H1891.64M1839.09 945.9V998.45M1839.09 945.9H1891.64M1839.09 998.45V1051M1839.09 998.45H1891.64M1839.09 1051H1891.64M1891.64 0V52.55M1891.64 0H1944.18M1891.64 52.55V105.1M1891.64 52.55H1944.18M1891.64 105.1V157.65M1891.64 105.1H1944.18M1891.64 157.65V210.2M1891.64 157.65H1944.18M1891.64 210.2V262.75M1891.64 210.2H1944.18M1891.64 262.75V315.3M1891.64 262.75H1944.18M1891.64 315.3V367.85M1891.64 315.3H1944.18M1891.64 367.85V420.4M1891.64 367.85H1944.18M1891.64 420.4V472.95M1891.64 420.4H1944.18M1891.64 472.95V525.5M1891.64 472.95H1944.18M1891.64 525.5V578.05M1891.64 525.5H1944.18M1891.64 578.05V630.6M1891.64 578.05H1944.18M1891.64 630.6V683.15M1891.64 630.6H1944.18M1891.64 683.15V735.7M1891.64 683.15H1944.18M1891.64 735.7V788.25M1891.64 735.7H1944.18M1891.64 788.25V840.8M1891.64 788.25H1944.18M1891.64 840.8V893.35M1891.64 840.8H1944.18M1891.64 893.35V945.9M1891.64 893.35H1944.18M1891.64 945.9V998.45M1891.64 945.9H1944.18M1891.64 998.45V1051M1891.64 998.45H1944.18M1891.64 1051H1944.18M1944.18 0V52.55M1944.18 0H1996.73M1944.18 52.55V105.1M1944.18 52.55H1996.73M1944.18 105.1V157.65M1944.18 105.1H1996.73M1944.18 157.65V210.2M1944.18 157.65H1996.73M1944.18 210.2V262.75M1944.18 210.2H1996.73M1944.18 262.75V315.3M1944.18 262.75H1996.73M1944.18 315.3V367.85M1944.18 315.3H1996.73M1944.18 367.85V420.4M1944.18 367.85H1996.73M1944.18 420.4V472.95M1944.18 420.4H1996.73M1944.18 472.95V525.5M1944.18 472.95H1996.73M1944.18 525.5V578.05M1944.18 525.5H1996.73M1944.18 578.05V630.6M1944.18 578.05H1996.73M1944.18 630.6V683.15M1944.18 630.6H1996.73M1944.18 683.15V735.7M1944.18 683.15H1996.73M1944.18 735.7V788.25M1944.18 735.7H1996.73M1944.18 788.25V840.8M1944.18 788.25H1996.73M1944.18 840.8V893.35M1944.18 840.8H1996.73M1944.18 893.35V945.9M1944.18 893.35H1996.73M1944.18 945.9V998.45M1944.18 945.9H1996.73M1944.18 998.45V1051M1944.18 998.45H1996.73M1944.18 1051H1996.73M1996.73 0V52.55M1996.73 0H2049.27M1996.73 52.55V105.1M1996.73 52.55H2049.27M1996.73 105.1V157.65M1996.73 105.1H2049.27M1996.73 157.65V210.2M1996.73 157.65H2049.27M1996.73 210.2V262.75M1996.73 210.2H2049.27M1996.73 262.75V315.3M1996.73 262.75H2049.27M1996.73 315.3V367.85M1996.73 315.3H2049.27M1996.73 367.85V420.4M1996.73 367.85H2049.27M1996.73 420.4V472.95M1996.73 420.4H2049.27M1996.73 472.95V525.5M1996.73 472.95H2049.27M1996.73 525.5V578.05M1996.73 525.5H2049.27M1996.73 578.05V630.6M1996.73 578.05H2049.27M1996.73 630.6V683.15M1996.73 630.6H2049.27M1996.73 683.15V735.7M1996.73 683.15H2049.27M1996.73 735.7V788.25M1996.73 735.7H2049.27M1996.73 788.25V840.8M1996.73 788.25H2049.27M1996.73 840.8V893.35M1996.73 840.8H2049.27M1996.73 893.35V945.9M1996.73 893.35H2049.27M1996.73 945.9V998.45M1996.73 945.9H2049.27M1996.73 998.45V1051M1996.73 998.45H2049.27M1996.73 1051H2049.27M2049.27 0V52.55M2049.27 0H2101.82M2049.27 52.55V105.1M2049.27 52.55H2101.82M2049.27 105.1V157.65M2049.27 105.1H2101.82M2049.27 157.65V210.2M2049.27 157.65H2101.82M2049.27 210.2V262.75M2049.27 210.2H2101.82M2049.27 262.75V315.3M2049.27 262.75H2101.82M2049.27 315.3V367.85M2049.27 315.3H2101.82M2049.27 367.85V420.4M2049.27 367.85H2101.82M2049.27 420.4V472.95M2049.27 420.4H2101.82M2049.27 472.95V525.5M2049.27 472.95H2101.82M2049.27 525.5V578.05M2049.27 525.5H2101.82M2049.27 578.05V630.6M2049.27 578.05H2101.82M2049.27 630.6V683.15M2049.27 630.6H2101.82M2049.27 683.15V735.7M2049.27 683.15H2101.82M2049.27 735.7V788.25M2049.27 735.7H2101.82M2049.27 788.25V840.8M2049.27 788.25H2101.82M2049.27 840.8V893.35M2049.27 840.8H2101.82M2049.27 893.35V945.9M2049.27 893.35H2101.82M2049.27 945.9V998.45M2049.27 945.9H2101.82M2049.27 998.45V1051M2049.27 998.45H2101.82M2049.27 1051H2101.82M2101.82 0V52.55M2101.82 0H2154.36M2101.82 52.55V105.1M2101.82 52.55H2154.36M2101.82 105.1V157.65M2101.82 105.1H2154.36M2101.82 157.65V210.2M2101.82 157.65H2154.36M2101.82 210.2V262.75M2101.82 210.2H2154.36M2101.82 262.75V315.3M2101.82 262.75H2154.36M2101.82 315.3V367.85M2101.82 315.3H2154.36M2101.82 367.85V420.4M2101.82 367.85H2154.36M2101.82 420.4V472.95M2101.82 420.4H2154.36M2101.82 472.95V525.5M2101.82 472.95H2154.36M2101.82 525.5V578.05M2101.82 525.5H2154.36M2101.82 578.05V630.6M2101.82 578.05H2154.36M2101.82 630.6V683.15M2101.82 630.6H2154.36M2101.82 683.15V735.7M2101.82 683.15H2154.36M2101.82 735.7V788.25M2101.82 735.7H2154.36M2101.82 788.25V840.8M2101.82 788.25H2154.36M2101.82 840.8V893.35M2101.82 840.8H2154.36M2101.82 893.35V945.9M2101.82 893.35H2154.36M2101.82 945.9V998.45M2101.82 945.9H2154.36M2101.82 998.45V1051M2101.82 998.45H2154.36M2101.82 1051H2154.36M2154.36 0V52.55M2154.36 0H2206.91M2154.36 52.55V105.1M2154.36 52.55H2206.91M2154.36 105.1V157.65M2154.36 105.1H2206.91M2154.36 157.65V210.2M2154.36 157.65H2206.91M2154.36 210.2V262.75M2154.36 210.2H2206.91M2154.36 262.75V315.3M2154.36 262.75H2206.91M2154.36 315.3V367.85M2154.36 315.3H2206.91M2154.36 367.85V420.4M2154.36 367.85H2206.91M2154.36 420.4V472.95M2154.36 420.4H2206.91M2154.36 472.95V525.5M2154.36 472.95H2206.91M2154.36 525.5V578.05M2154.36 525.5H2206.91M2154.36 578.05V630.6M2154.36 578.05H2206.91M2154.36 630.6V683.15M2154.36 630.6H2206.91M2154.36 683.15V735.7M2154.36 683.15H2206.91M2154.36 735.7V788.25M2154.36 735.7H2206.91M2154.36 788.25V840.8M2154.36 788.25H2206.91M2154.36 840.8V893.35M2154.36 840.8H2206.91M2154.36 893.35V945.9M2154.36 893.35H2206.91M2154.36 945.9V998.45M2154.36 945.9H2206.91M2154.36 998.45V1051M2154.36 998.45H2206.91M2154.36 1051H2206.91M2206.91 0V52.55M2206.91 0H2259.45M2206.91 52.55V105.1M2206.91 52.55H2259.45M2206.91 105.1V157.65M2206.91 105.1H2259.45M2206.91 157.65V210.2M2206.91 157.65H2259.45M2206.91 210.2V262.75M2206.91 210.2H2259.45M2206.91 262.75V315.3M2206.91 262.75H2259.45M2206.91 315.3V367.85M2206.91 315.3H2259.45M2206.91 367.85V420.4M2206.91 367.85H2259.45M2206.91 420.4V472.95M2206.91 420.4H2259.45M2206.91 472.95V525.5M2206.91 472.95H2259.45M2206.91 525.5V578.05M2206.91 525.5H2259.45M2206.91 578.05V630.6M2206.91 578.05H2259.45M2206.91 630.6V683.15M2206.91 630.6H2259.45M2206.91 683.15V735.7M2206.91 683.15H2259.45M2206.91 735.7V788.25M2206.91 735.7H2259.45M2206.91 788.25V840.8M2206.91 788.25H2259.45M2206.91 840.8V893.35M2206.91 840.8H2259.45M2206.91 893.35V945.9M2206.91 893.35H2259.45M2206.91 945.9V998.45M2206.91 945.9H2259.45M2206.91 998.45V1051M2206.91 998.45H2259.45M2206.91 1051H2259.45M2259.45 0V52.55M2259.45 0H2312V52.55M2259.45 52.55V105.1M2259.45 52.55H2312M2259.45 105.1V157.65M2259.45 105.1H2312M2259.45 157.65V210.2M2259.45 157.65H2312M2259.45 210.2V262.75M2259.45 210.2H2312M2259.45 262.75V315.3M2259.45 262.75H2312M2259.45 315.3V367.85M2259.45 315.3H2312M2259.45 367.85V420.4M2259.45 367.85H2312M2259.45 420.4V472.95M2259.45 420.4H2312M2259.45 472.95V525.5M2259.45 472.95H2312M2259.45 525.5V578.05M2259.45 525.5H2312M2259.45 578.05V630.6M2259.45 578.05H2312M2259.45 630.6V683.15M2259.45 630.6H2312M2259.45 683.15V735.7M2259.45 683.15H2312M2259.45 735.7V788.25M2259.45 735.7H2312M2259.45 788.25V840.8M2259.45 788.25H2312M2259.45 840.8V893.35M2259.45 840.8H2312M2259.45 893.35V945.9M2259.45 893.35H2312M2259.45 945.9V998.45M2259.45 945.9H2312M2259.45 998.45V1051M2259.45 998.45H2312M2259.45 1051H2312V998.45M2312 52.55V105.1M2312 105.1V157.65M2312 157.65V210.2M2312 210.2V262.75M2312 262.75V315.3M2312 315.3V367.85M2312 367.85V420.4M2312 420.4V472.95M2312 472.95V525.5M2312 525.5V578.05M2312 578.05V630.6M2312 630.6V683.15M2312 683.15V735.7M2312 735.7V788.25M2312 788.25V840.8M2312 840.8V893.35M2312 893.35V945.9M2312 945.9V998.45" stroke="black" stroke-opacity="0.3" stroke-width="0.804612"/>
</svg>
