<svg width="33" height="33" viewBox="0 0 33 33" fill="none" xmlns="http://www.w3.org/2000/svg">
<path d="M20.5425 26.8125L16.5 24.4338L12.4575 26.8125L13.53 22.22L9.96877 19.14L14.6575 18.7413L16.5 14.4375L18.3425 18.7413L23.0313 19.14L19.47 22.22M27.5 2.75H5.50002V5.5L12.1825 10.505C9.85108 11.4999 7.93481 13.2695 6.75778 15.5146C5.58075 17.7596 5.2152 20.3422 5.72296 22.8257C6.23071 25.3092 7.58061 27.5411 9.54435 29.1439C11.5081 30.7468 13.9652 31.6223 16.5 31.6223C19.0349 31.6223 21.4919 30.7468 23.4557 29.1439C25.4194 27.5411 26.7693 25.3092 27.2771 22.8257C27.7848 20.3422 27.4193 17.7596 26.2423 15.5146C25.0652 13.2695 23.149 11.4999 20.8175 10.505L27.5 5.5M24.75 20.625C24.7508 22.1874 24.3078 23.7178 23.4728 25.0383C22.6377 26.3588 21.4448 27.4151 20.033 28.0841C18.6211 28.7532 17.0483 29.0076 15.4975 28.8177C13.9467 28.6279 12.4817 28.0016 11.2729 27.0117C10.0641 26.0217 9.16131 24.7089 8.66947 23.226C8.17763 21.7431 8.11699 20.1509 8.49461 18.6349C8.87223 17.1188 9.67259 15.7412 10.8026 14.6622C11.9325 13.5832 13.3457 12.8473 14.8775 12.54C15.9481 12.3215 17.0519 12.3215 18.1225 12.54C19.991 12.9148 21.6722 13.9249 22.8803 15.3988C24.0885 16.8726 24.7491 18.7193 24.75 20.625ZM17.3663 9.625H15.6338L10.1338 5.5H22.9763L17.3663 9.625Z" fill="url(#paint0_linear_1002_2516)"/>
<defs>
<linearGradient id="paint0_linear_1002_2516" x1="16.5" y1="2.75" x2="16.5" y2="31.6223" gradientUnits="userSpaceOnUse">
<stop stop-color="#110555"/>
<stop offset="1" stop-color="#3A26AE"/>
</linearGradient>
</defs>
</svg>
