<svg width="33" height="33" viewBox="0 0 33 33" fill="none" xmlns="http://www.w3.org/2000/svg">
<path d="M12.375 27.5L10.45 25.575L12.8563 23.1C9.92292 22.7104 7.50521 21.9083 5.60312 20.6938C3.70104 19.4792 2.75 18.0813 2.75 16.5C2.75 14.5979 4.07367 12.9768 6.721 11.6366C9.36833 10.2965 12.628 9.62592 16.5 9.625C20.372 9.62408 23.6321 10.2946 26.2804 11.6366C28.9286 12.9786 30.2518 14.5998 30.25 16.5C30.25 17.9208 29.4882 19.1927 27.9647 20.3156C26.4412 21.4385 24.453 22.275 22 22.825V20.0063C23.7646 19.5479 25.1226 18.981 26.0741 18.3054C27.0256 17.6298 27.5009 17.028 27.5 16.5C27.5 15.7667 26.5205 14.8958 24.5616 13.8875C22.6027 12.8792 19.9155 12.375 16.5 12.375C13.0845 12.375 10.3973 12.8792 8.43837 13.8875C6.47946 14.8958 5.5 15.7667 5.5 16.5C5.5 17.05 6.08438 17.7091 7.25313 18.4773C8.42188 19.2454 10.0833 19.8238 12.2375 20.2125L10.45 18.425L12.375 16.5L17.875 22L12.375 27.5Z" fill="url(#paint0_linear_885_2360)"/>
<defs>
<linearGradient id="paint0_linear_885_2360" x1="16.5" y1="9.625" x2="16.5" y2="27.5" gradientUnits="userSpaceOnUse">
<stop stop-color="#110555"/>
<stop offset="1" stop-color="#3A26AE"/>
</linearGradient>
</defs>
</svg>
