<svg width="33" height="33" viewBox="0 0 33 33" fill="none" xmlns="http://www.w3.org/2000/svg">
<path fill-rule="evenodd" clip-rule="evenodd" d="M19.25 4.125C19.9438 4.12478 20.612 4.38681 21.1208 4.85856C21.6295 5.33031 21.9411 5.97691 21.9931 6.66875L22 6.875V8.32562L27.0064 9.66763C27.6767 9.84704 28.2545 10.2733 28.6237 10.8608C28.993 11.4484 29.1265 12.1538 28.9974 12.8356L28.9506 13.035L25.3921 26.3175C25.2124 26.9876 24.7861 27.565 24.1986 27.934C23.611 28.303 22.9058 28.4363 22.2241 28.3071L22.0247 28.2618L21.2176 28.0459C20.7749 28.4996 20.174 28.8021 19.5044 28.864L19.25 28.875H6.875C6.18121 28.8752 5.51297 28.6132 5.00425 28.1414C4.49552 27.6697 4.18391 27.0231 4.13188 26.3312L4.125 26.125V6.875C4.12478 6.18121 4.38681 5.51297 4.85856 5.00425C5.33031 4.49552 5.97691 4.18391 6.66875 4.13188L6.875 4.125H19.25ZM19.25 6.875H6.875V26.125H19.25V6.875ZM22 11.1733V25.4086L22.7356 25.6052L26.2955 12.3228L22 11.1733Z" fill="url(#paint0_linear_885_2536)"/>
<defs>
<linearGradient id="paint0_linear_885_2536" x1="16.5852" y1="4.125" x2="16.5852" y2="28.875" gradientUnits="userSpaceOnUse">
<stop stop-color="#110555"/>
<stop offset="1" stop-color="#3A26AE"/>
</linearGradient>
</defs>
</svg>
